<?xml version="1.0" standalone="no"?>
<!DOCTYPE svg PUBLIC "-//W3C//DTD SVG 20010904//EN"
 "http://www.w3.org/TR/2001/REC-SVG-20010904/DTD/svg10.dtd">
<svg version="1.0" xmlns="http://www.w3.org/2000/svg"
 width="512.000000pt" height="512.000000pt" viewBox="0 0 512.000000 512.000000"
 preserveAspectRatio="xMidYMid meet">
<metadata>
Created by potrace 1.14, written by Peter Selinger 2001-2017
</metadata>
<g transform="translate(0.000000,512.000000) scale(0.100000,-0.100000)"
fill="#000000" stroke="none">
<path d="M815 4050 c-63 -14 -125 -62 -155 -118 -21 -42 -24 -119 -6 -167 16
-42 81 -110 247 -259 30 -27 101 -93 159 -147 58 -53 119 -110 136 -126 17
-15 78 -71 135 -124 57 -53 118 -108 134 -123 60 -55 230 -213 297 -276 l68
-65 -57 -62 c-32 -34 -101 -108 -153 -164 -52 -56 -106 -114 -119 -128 -13
-14 -51 -55 -85 -91 -67 -73 -219 -236 -432 -465 -76 -82 -162 -175 -190 -205
-129 -137 -154 -179 -154 -250 0 -113 102 -214 214 -211 68 1 125 32 187 99
54 60 101 110 288 310 62 67 121 130 130 141 9 10 66 71 126 136 61 65 124
132 140 150 65 70 231 249 254 274 13 14 72 78 131 141 183 196 190 204 212
245 47 87 19 199 -69 275 -21 18 -65 58 -98 89 -33 31 -114 106 -180 166 -65
61 -126 117 -135 125 -14 13 -74 69 -298 275 -30 28 -78 72 -106 98 -28 27
-85 79 -126 117 -42 37 -90 81 -106 96 -17 16 -75 70 -128 119 -54 50 -108 96
-122 103 -35 18 -104 29 -139 22z"/>
<path d="M2099 1489 c-99 -16 -179 -109 -179 -209 0 -77 50 -154 124 -192 41
-21 41 -21 1156 -21 1109 0 1115 0 1155 20 165 86 166 300 1 385 -41 21 -43
21 -1132 22 -600 1 -1106 -2 -1125 -5z"/>
</g>
</svg>
